# xmcd
#
# Track frame offsets: 
#        150
#        9789
#        29117
#        47483
#        60413
#        77735
#        96306
#        111501
#        125526
#        139497
#        155929
#        174811
#        190844
#        211551
#        226610
#        232537
#        247551
#        263173
#        275904
#        291070
#        309564
#        326811
#
# Disc length: 4572 seconds
#
# Revision: 0
# Processed by: cddbd v1.5.2PL0 Copyright (c) Steve Scherf et al.
# Submitted via: ExactAudioCopy v0.99pb4
#
DISCID=2811da16
DTITLE=Various Artist - Acoustic Vol.VII #12 Radio Sampler
DYEAR=2007
DGENRE=Acoustic
TTITLE0=Special Consensus/Nine Pound Hammer
TTITLE1=Stewed Mulligan/June Apple
TTITLE2=Bev Barnett and Greg Newlon/I Believe in You and Me
TTITLE3=Rosann Winn/Standing Strong
TTITLE4=Robin Bullock/The Savage Wee Beastie:Limerick Lassie:Bird in t
TTITLE4=he Bush
TTITLE5=Darlene/Chicken in the Red Dress
TTITLE6=Gates and Goodell/Hurricane
TTITLE7=The Nephews/Ooh Hoo, Didn't I Do
TTITLE8=A Girl and a Guitar/When I Am Holding Your Hand
TTITLE9=Bud Preston/Mount Hope
TTITLE10=Spottiswoode and His Enemies/In the Pouring Rain
TTITLE11=Lisa Biales/Come to Me
TTITLE12=Dan Schatz/Leave Time
TTITLE13=Webber Willer and Michael Brizak/Evening Song
TTITLE14=J.Poet/A Woman I Can Fight With
TTITLE15=Hannah Levin/How Good Things Can Be
TTITLE16=Peter and Alex/Midnight Madrid
TTITLE17=Bobby Powell and Time Jones/Nothing So Blue
TTITLE18=Bobby Barbados/Cactus Lizard
TTITLE19=Siggi Jung/We Might Fly
TTITLE20=Laura and Darin Smith/Sweetest Medley
TTITLE21=Kuji/Why Should I Stay
EXTD=
EXTT0=
EXTT1=
EXTT2=
EXTT3=
EXTT4=
EXTT5=
EXTT6=
EXTT7=
EXTT8=
EXTT9=
EXTT10=
EXTT11=
EXTT12=
EXTT13=
EXTT14=
EXTT15=
EXTT16=
EXTT17=
EXTT18=
EXTT19=
EXTT20=
EXTT21=
PLAYORDER=
